<?xml version="1.0" standalone="no"?>
<!DOCTYPE svg PUBLIC "-//W3C//DTD SVG 20010904//EN"
 "http://www.w3.org/TR/2001/REC-SVG-20010904/DTD/svg10.dtd">
<svg version="1.0" xmlns="http://www.w3.org/2000/svg"
 width="1903.000000pt" height="1135.000000pt" viewBox="0 0 1903.000000 1135.000000"
 preserveAspectRatio="xMidYMid meet">

<g transform="translate(0.000000,1135.000000) scale(0.100000,-0.100000)"
fill="#000000" stroke="none">
<path d="M7415 10977 c-513 -200 -965 -449 -1382 -760 -435 -325 -849 -739
-1165 -1167 -1053 -1424 -1381 -3230 -898 -4934 185 -652 506 -1297 915 -1841
630 -836 1460 -1472 2430 -1863 230 -92 216 -90 321 -52 136 50 419 172 556
241 445 222 952 568 1265 863 l53 49 29 -24 c16 -13 89 -75 163 -138 232 -199
484 -380 768 -551 181 -109 569 -301 763 -379 l159 -63 141 57 c564 229 1058
526 1532 921 165 138 483 450 627 616 712 819 1173 1818 1332 2884 43 287 59
513 59 834 0 386 -27 696 -94 1052 -322 1725 -1443 3215 -3019 4013 -158 79
-383 180 -518 231 l-63 23 -97 -38 c-588 -235 -1099 -540 -1577 -941 -77 -65
-151 -130 -164 -144 -14 -14 -28 -26 -33 -26 -5 0 -51 37 -101 81 -403 357
-879 668 -1363 892 -163 76 -460 195 -501 202 -18 3 -68 -11 -138 -38z m-775
-3497 c295 -37 543 -162 770 -390 174 -173 282 -346 356 -567 121 -359 120
-813 -2 -1164 -67 -196 -166 -357 -313 -511 -216 -228 -446 -362 -726 -424
-97 -21 -343 -30 -444 -15 -249 37 -482 147 -668 316 l-63 57 0 -696 0 -696
-375 0 -375 0 2 2013 3 2012 373 3 372 2 0 -161 0 -161 63 57 c123 112 326
229 482 278 69 21 135 35 245 51 55 8 221 5 300 -4z m3180 -19 c213 -48 463
-182 595 -320 21 -22 43 -41 47 -41 4 0 8 72 8 160 l0 160 370 0 370 0 0
-1475 0 -1475 -370 0 -370 0 0 150 c0 83 -3 150 -6 150 -3 0 -28 -20 -56 -44
-182 -164 -402 -272 -638 -312 -114 -20 -375 -14 -483 11 -258 58 -465 173
-663 370 -322 319 -464 669 -464 1150 0 515 178 931 522 1222 218 184 436 281
718 317 79 10 336 -4 420 -23z m2838 -449 l294 -403 289 406 290 405 420 0
c325 0 418 -3 413 -12 -4 -7 -227 -317 -496 -690 -268 -374 -488 -684 -488
-690 0 -8 959 -1340 1098 -1526 l25 -32 -434 2 -433 3 -343 470 c-189 259
-346 471 -351 472 -4 1 -160 -211 -347 -472 l-340 -474 -422 -1 c-233 0 -423
3 -423 6 0 3 250 352 555 774 l555 769 -496 688 c-273 378 -501 694 -507 701
-8 10 75 12 419 10 l429 -3 293 -403z"/>
<path d="M6190 6798 c-305 -43 -558 -270 -642 -574 -19 -68 -22 -106 -22 -269
-1 -227 11 -287 86 -443 44 -93 60 -114 146 -200 134 -134 247 -197 408 -228
435 -83 847 208 939 665 14 66 16 116 12 235 -6 179 -20 243 -87 381 -157 324
-470 486 -840 433z"/>
<path d="M9574 6800 c-167 -23 -317 -101 -444 -229 -71 -71 -94 -103 -133
-181 -73 -149 -91 -240 -91 -450 1 -147 4 -188 23 -255 77 -287 299 -518 566
-590 84 -22 235 -30 325 -16 175 28 310 99 445 235 79 79 98 105 142 196 60
123 78 188 94 325 23 214 -20 438 -117 597 -104 171 -296 308 -492 352 -91 20
-236 28 -318 16z"/>
</g>
</svg>
